<svg width="1024" height="753" viewBox="0 0 1024 753" fill="none" xmlns="http://www.w3.org/2000/svg">
<g opacity="0.2" filter="url(#filter0_f_175_198)">
<ellipse cx="528.5" cy="236" rx="670.5" ry="350" fill="#338AF3"/>
</g>
<path d="M49.0349 472C50.5302 472 51.6622 472.63 52.4308 473.891C53.2134 475.138 53.6047 476.953 53.6047 479.336C53.6047 481.719 53.2134 483.541 52.4308 484.802C51.6622 486.063 50.5302 486.693 49.0349 486.693C47.5536 486.693 46.4216 486.063 45.639 484.802C44.8564 483.541 44.4651 481.719 44.4651 479.336C44.4651 476.967 44.8564 475.152 45.639 473.891C46.4216 472.63 47.5536 472 49.0349 472ZM45.9534 479.336C45.9534 481.026 46.1072 482.35 46.4146 483.306L51.0683 474.099C50.5791 473.448 49.9013 473.122 49.0349 473.122C48.0706 473.122 47.316 473.635 46.771 474.66C46.2259 475.672 45.9534 477.23 45.9534 479.336ZM49.0349 485.55C50.0131 485.55 50.7748 485.044 51.3198 484.033C51.8648 483.008 52.1373 481.442 52.1373 479.336C52.1373 477.549 51.9627 476.163 51.6133 475.18L46.9596 484.469C47.4627 485.19 48.1545 485.55 49.0349 485.55Z" fill="url(#paint0_linear_175_198)" fill-opacity="0.6"/>
<path d="M50.2926 509.135H53.3741V510.236H45.3874V509.135H48.9511V497.455L45.5551 499.471L44.9682 498.536L49.1607 495.959H50.2926V509.135Z" fill="url(#paint1_linear_175_198)" fill-opacity="0.6"/>
<path d="M49.0349 519.502C50.5302 519.502 51.6622 520.133 52.4308 521.393C53.2134 522.64 53.6047 524.455 53.6047 526.838C53.6047 529.221 53.2134 531.043 52.4308 532.304C51.6622 533.565 50.5302 534.195 49.0349 534.195C47.5536 534.195 46.4216 533.565 45.639 532.304C44.8564 531.043 44.4651 529.221 44.4651 526.838C44.4651 524.469 44.8564 522.654 45.639 521.393C46.4216 520.133 47.5536 519.502 49.0349 519.502ZM45.9534 526.838C45.9534 528.529 46.1072 529.852 46.4146 530.808L51.0683 521.601C50.5791 520.95 49.9013 520.624 49.0349 520.624C48.0706 520.624 47.316 521.137 46.771 522.162C46.2259 523.174 45.9534 524.732 45.9534 526.838ZM49.0349 533.052C50.0131 533.052 50.7748 532.546 51.3198 531.535C51.8648 530.51 52.1373 528.944 52.1373 526.838C52.1373 525.051 51.9627 523.665 51.6133 522.682L46.9596 531.971C47.4627 532.692 48.1545 533.052 49.0349 533.052Z" fill="url(#paint2_linear_175_198)" fill-opacity="0.6"/>
<path d="M50.2926 556.637H53.3741V557.738H45.3874V556.637H48.9511V544.957L45.5551 546.973L44.9682 546.038L49.1607 543.461H50.2926V556.637Z" fill="url(#paint3_linear_175_198)" fill-opacity="0.6"/>
<path d="M50.2926 580.388H53.3741V581.489H45.3874V580.388H48.9511V568.708L45.5551 570.724L44.9682 569.789L49.1607 567.212H50.2926V580.388Z" fill="url(#paint4_linear_175_198)" fill-opacity="0.6"/>
<path d="M49.0349 590.755C50.5302 590.755 51.6622 591.386 52.4308 592.646C53.2134 593.893 53.6047 595.708 53.6047 598.091C53.6047 600.474 53.2134 602.296 52.4308 603.557C51.6622 604.818 50.5302 605.448 49.0349 605.448C47.5536 605.448 46.4216 604.818 45.639 603.557C44.8564 602.296 44.4651 600.474 44.4651 598.091C44.4651 595.722 44.8564 593.907 45.639 592.646C46.4216 591.386 47.5536 590.755 49.0349 590.755ZM45.9534 598.091C45.9534 599.782 46.1072 601.105 46.4146 602.061L51.0683 592.854C50.5791 592.203 49.9013 591.878 49.0349 591.878C48.0706 591.878 47.316 592.39 46.771 593.415C46.2259 594.427 45.9534 595.985 45.9534 598.091ZM49.0349 604.305C50.0131 604.305 50.7748 603.8 51.3198 602.788C51.8648 601.763 52.1373 600.197 52.1373 598.091C52.1373 596.304 51.9627 594.919 51.6133 593.935L46.9596 603.225C47.4627 603.945 48.1545 604.305 49.0349 604.305Z" fill="url(#paint5_linear_175_198)" fill-opacity="0.6"/>
<path d="M50.2926 627.89H53.3741V628.992H45.3874V627.89H48.9511V616.21L45.5551 618.226L44.9682 617.291L49.1607 614.714H50.2926V627.89Z" fill="url(#paint6_linear_175_198)" fill-opacity="0.6"/>
<path d="M49.0349 638.257C50.5302 638.257 51.6622 638.888 52.4308 640.149C53.2134 641.396 53.6047 643.211 53.6047 645.594C53.6047 647.977 53.2134 649.798 52.4308 651.059C51.6622 652.32 50.5302 652.95 49.0349 652.95C47.5536 652.95 46.4216 652.32 45.639 651.059C44.8564 649.798 44.4651 647.977 44.4651 645.594C44.4651 643.224 44.8564 641.409 45.639 640.149C46.4216 638.888 47.5536 638.257 49.0349 638.257ZM45.9534 645.594C45.9534 647.284 46.1072 648.607 46.4146 649.563L51.0683 640.356C50.5791 639.705 49.9013 639.38 49.0349 639.38C48.0706 639.38 47.316 639.892 46.771 640.918C46.2259 641.929 45.9534 643.488 45.9534 645.594ZM49.0349 651.807C50.0131 651.807 50.7748 651.302 51.3198 650.29C51.8648 649.265 52.1373 647.699 52.1373 645.594C52.1373 643.806 51.9627 642.421 51.6133 641.437L46.9596 650.727C47.4627 651.447 48.1545 651.807 49.0349 651.807Z" fill="url(#paint7_linear_175_198)" fill-opacity="0.6"/>
<path d="M49.0349 662.008C50.5302 662.008 51.6622 662.639 52.4308 663.9C53.2134 665.147 53.6047 666.962 53.6047 669.345C53.6047 671.728 53.2134 673.549 52.4308 674.81C51.6622 676.071 50.5302 676.701 49.0349 676.701C47.5536 676.701 46.4216 676.071 45.639 674.81C44.8564 673.549 44.4651 671.728 44.4651 669.345C44.4651 666.975 44.8564 665.16 45.639 663.9C46.4216 662.639 47.5536 662.008 49.0349 662.008ZM45.9534 669.345C45.9534 671.035 46.1072 672.358 46.4146 673.314L51.0683 664.107C50.5791 663.456 49.9013 663.131 49.0349 663.131C48.0706 663.131 47.316 663.643 46.771 664.669C46.2259 665.68 45.9534 667.239 45.9534 669.345ZM49.0349 675.558C50.0131 675.558 50.7748 675.053 51.3198 674.041C51.8648 673.016 52.1373 671.451 52.1373 669.345C52.1373 667.557 51.9627 666.172 51.6133 665.188L46.9596 674.478C47.4627 675.198 48.1545 675.558 49.0349 675.558Z" fill="url(#paint8_linear_175_198)" fill-opacity="0.6"/>
<path d="M50.2926 699.143H53.3741V700.245H45.3874V699.143H48.9511V687.464L45.5551 689.48L44.9682 688.544L49.1607 685.967H50.2926V699.143Z" fill="url(#paint9_linear_175_198)" fill-opacity="0.6"/>
<path d="M49.0349 709.511C50.5302 709.511 51.6622 710.141 52.4308 711.402C53.2134 712.649 53.6047 714.464 53.6047 716.847C53.6047 719.23 53.2134 721.052 52.4308 722.312C51.6622 723.573 50.5302 724.204 49.0349 724.204C47.5536 724.204 46.4216 723.573 45.639 722.312C44.8564 721.052 44.4651 719.23 44.4651 716.847C44.4651 714.478 44.8564 712.663 45.639 711.402C46.4216 710.141 47.5536 709.511 49.0349 709.511ZM45.9534 716.847C45.9534 718.537 46.1072 719.86 46.4146 720.816L51.0683 711.61C50.5791 710.958 49.9013 710.633 49.0349 710.633C48.0706 710.633 47.316 711.145 46.771 712.171C46.2259 713.182 45.9534 714.741 45.9534 716.847ZM49.0349 723.061C50.0131 723.061 50.7748 722.555 51.3198 721.543C51.8648 720.518 52.1373 718.953 52.1373 716.847C52.1373 715.059 51.9627 713.674 51.6133 712.69L46.9596 721.98C47.4627 722.7 48.1545 723.061 49.0349 723.061Z" fill="url(#paint10_linear_175_198)" fill-opacity="0.6"/>
<path d="M50.2926 746.645H53.3741V747.747H45.3874V746.645H48.9511V734.966L45.5551 736.982L44.9682 736.046L49.1607 733.469H50.2926V746.645Z" fill="url(#paint11_linear_175_198)" fill-opacity="0.6"/>
<path d="M50.2926 770.396H53.3741V771.498H45.3874V770.396H48.9511V758.717L45.5551 760.733L44.9682 759.798L49.1607 757.221H50.2926V770.396Z" fill="url(#paint12_linear_175_198)" fill-opacity="0.6"/>
<path d="M87.9651 519.502C89.4604 519.502 90.5924 520.133 91.361 521.393C92.1436 522.64 92.5349 524.455 92.5349 526.838C92.5349 529.221 92.1436 531.043 91.361 532.304C90.5924 533.565 89.4604 534.195 87.9651 534.195C86.4838 534.195 85.3518 533.565 84.5692 532.304C83.7866 531.043 83.3953 529.221 83.3953 526.838C83.3953 524.469 83.7866 522.654 84.5692 521.393C85.3518 520.133 86.4838 519.502 87.9651 519.502ZM84.8836 526.838C84.8836 528.529 85.0374 529.852 85.3448 530.808L89.9985 521.601C89.5093 520.95 88.8315 520.624 87.9651 520.624C87.0008 520.624 86.2462 521.137 85.7012 522.162C85.1561 523.174 84.8836 524.732 84.8836 526.838ZM87.9651 533.052C88.9433 533.052 89.705 532.546 90.25 531.535C90.795 530.51 91.0675 528.944 91.0675 526.838C91.0675 525.051 90.8928 523.665 90.5435 522.682L85.8898 531.971C86.3929 532.692 87.0847 533.052 87.9651 533.052Z" fill="url(#paint13_linear_175_198)" fill-opacity="0.6"/>
<path d="M89.2228 556.637H92.3043V557.738H84.3176V556.637H87.8812V544.957L84.4853 546.973L83.8984 546.038L88.0909 543.461H89.2228V556.637Z" fill="url(#paint14_linear_175_198)" fill-opacity="0.6"/>
<path d="M87.9651 567.004C89.4604 567.004 90.5924 567.635 91.361 568.895C92.1436 570.142 92.5349 571.957 92.5349 574.34C92.5349 576.723 92.1436 578.545 91.361 579.806C90.5924 581.067 89.4604 581.697 87.9651 581.697C86.4838 581.697 85.3518 581.067 84.5692 579.806C83.7866 578.545 83.3953 576.723 83.3953 574.34C83.3953 571.971 83.7866 570.156 84.5692 568.895C85.3518 567.635 86.4838 567.004 87.9651 567.004ZM84.8836 574.34C84.8836 576.031 85.0374 577.354 85.3448 578.31L89.9985 569.103C89.5093 568.452 88.8315 568.126 87.9651 568.126C87.0008 568.126 86.2462 568.639 85.7012 569.664C85.1561 570.676 84.8836 572.234 84.8836 574.34ZM87.9651 580.554C88.9433 580.554 89.705 580.049 90.25 579.037C90.795 578.012 91.0675 576.446 91.0675 574.34C91.0675 572.553 90.8928 571.168 90.5435 570.184L85.8898 579.474C86.3929 580.194 87.0847 580.554 87.9651 580.554Z" fill="url(#paint15_linear_175_198)" fill-opacity="0.6"/>
<path d="M87.9651 590.755C89.4604 590.755 90.5924 591.386 91.361 592.646C92.1436 593.893 92.5349 595.708 92.5349 598.091C92.5349 600.474 92.1436 602.296 91.361 603.557C90.5924 604.818 89.4604 605.448 87.9651 605.448C86.4838 605.448 85.3518 604.818 84.5692 603.557C83.7866 602.296 83.3953 600.474 83.3953 598.091C83.3953 595.722 83.7866 593.907 84.5692 592.646C85.3518 591.386 86.4838 590.755 87.9651 590.755ZM84.8836 598.091C84.8836 599.782 85.0374 601.105 85.3448 602.061L89.9985 592.854C89.5093 592.203 88.8315 591.878 87.9651 591.878C87.0008 591.878 86.2462 592.39 85.7012 593.415C85.1561 594.427 84.8836 595.985 84.8836 598.091ZM87.9651 604.305C88.9433 604.305 89.705 603.8 90.25 602.788C90.795 601.763 91.0675 600.197 91.0675 598.091C91.0675 596.304 90.8928 594.919 90.5435 593.935L85.8898 603.225C86.3929 603.945 87.0847 604.305 87.9651 604.305Z" fill="url(#paint16_linear_175_198)" fill-opacity="0.6"/>
<path d="M89.2228 627.89H92.3043V628.992H84.3176V627.89H87.8812V616.21L84.4853 618.226L83.8984 617.291L88.0909 614.714H89.2228V627.89Z" fill="url(#paint17_linear_175_198)" fill-opacity="0.6"/>
<path d="M87.9651 638.257C89.4604 638.257 90.5924 638.888 91.361 640.149C92.1436 641.396 92.5349 643.211 92.5349 645.594C92.5349 647.977 92.1436 649.798 91.361 651.059C90.5924 652.32 89.4604 652.95 87.9651 652.95C86.4838 652.95 85.3518 652.32 84.5692 651.059C83.7866 649.798 83.3953 647.977 83.3953 645.594C83.3953 643.224 83.7866 641.409 84.5692 640.149C85.3518 638.888 86.4838 638.257 87.9651 638.257ZM84.8836 645.594C84.8836 647.284 85.0374 648.607 85.3448 649.563L89.9985 640.356C89.5093 639.705 88.8315 639.38 87.9651 639.38C87.0008 639.38 86.2462 639.892 85.7012 640.918C85.1561 641.929 84.8836 643.488 84.8836 645.594ZM87.9651 651.807C88.9433 651.807 89.705 651.302 90.25 650.29C90.795 649.265 91.0675 647.699 91.0675 645.594C91.0675 643.806 90.8928 642.421 90.5435 641.437L85.8898 650.727C86.3929 651.447 87.0847 651.807 87.9651 651.807Z" fill="url(#paint18_linear_175_198)" fill-opacity="0.6"/>
<path d="M89.2228 675.392H92.3043V676.494H84.3176V675.392H87.8812V663.713L84.4853 665.728L83.8984 664.793L88.0909 662.216H89.2228V675.392Z" fill="url(#paint19_linear_175_198)" fill-opacity="0.6"/>
<path d="M87.9651 685.76C89.4604 685.76 90.5924 686.39 91.361 687.651C92.1436 688.898 92.5349 690.713 92.5349 693.096C92.5349 695.479 92.1436 697.301 91.361 698.561C90.5924 699.822 89.4604 700.453 87.9651 700.453C86.4838 700.453 85.3518 699.822 84.5692 698.561C83.7866 697.301 83.3953 695.479 83.3953 693.096C83.3953 690.726 83.7866 688.911 84.5692 687.651C85.3518 686.39 86.4838 685.76 87.9651 685.76ZM84.8836 693.096C84.8836 694.786 85.0374 696.109 85.3448 697.065L89.9985 687.859C89.5093 687.207 88.8315 686.882 87.9651 686.882C87.0008 686.882 86.2462 687.394 85.7012 688.42C85.1561 689.431 84.8836 690.99 84.8836 693.096ZM87.9651 699.31C88.9433 699.31 89.705 698.804 90.25 697.792C90.795 696.767 91.0675 695.202 91.0675 693.096C91.0675 691.308 90.8928 689.923 90.5435 688.939L85.8898 698.229C86.3929 698.949 87.0847 699.31 87.9651 699.31Z" fill="url(#paint20_linear_175_198)" fill-opacity="0.6"/>
<path d="M87.9651 709.511C89.4604 709.511 90.5924 710.141 91.361 711.402C92.1436 712.649 92.5349 714.464 92.5349 716.847C92.5349 719.23 92.1436 721.052 91.361 722.312C90.5924 723.573 89.4604 724.204 87.9651 724.204C86.4838 724.204 85.3518 723.573 84.5692 722.312C83.7866 721.052 83.3953 719.23 83.3953 716.847C83.3953 714.478 83.7866 712.663 84.5692 711.402C85.3518 710.141 86.4838 709.511 87.9651 709.511ZM84.8836 716.847C84.8836 718.537 85.0374 719.86 85.3448 720.816L89.9985 711.61C89.5093 710.958 88.8315 710.633 87.9651 710.633C87.0008 710.633 86.2462 711.145 85.7012 712.171C85.1561 713.182 84.8836 714.741 84.8836 716.847ZM87.9651 723.061C88.9433 723.061 89.705 722.555 90.25 721.543C90.795 720.518 91.0675 718.953 91.0675 716.847C91.0675 715.059 90.8928 713.674 90.5435 712.69L85.8898 721.98C86.3929 722.7 87.0847 723.061 87.9651 723.061Z" fill="url(#paint21_linear_175_198)" fill-opacity="0.6"/>
<path d="M89.2228 746.645H92.3043V747.747H84.3176V746.645H87.8812V734.966L84.4853 736.982L83.8984 736.046L88.0909 733.469H89.2228V746.645Z" fill="url(#paint22_linear_175_198)" fill-opacity="0.6"/>
<path d="M87.9651 757.013C89.4604 757.013 90.5924 757.643 91.361 758.904C92.1436 760.151 92.5349 761.966 92.5349 764.349C92.5349 766.732 92.1436 768.554 91.361 769.815C90.5924 771.075 89.4604 771.706 87.9651 771.706C86.4838 771.706 85.3518 771.075 84.5692 769.815C83.7866 768.554 83.3953 766.732 83.3953 764.349C83.3953 761.98 83.7866 760.165 84.5692 758.904C85.3518 757.643 86.4838 757.013 87.9651 757.013ZM84.8836 764.349C84.8836 766.039 85.0374 767.362 85.3448 768.318L89.9985 759.112C89.5093 758.461 88.8315 758.135 87.9651 758.135C87.0008 758.135 86.2462 758.648 85.7012 759.673C85.1561 760.684 84.8836 762.243 84.8836 764.349ZM87.9651 770.563C88.9433 770.563 89.705 770.057 90.25 769.046C90.795 768.02 91.0675 766.455 91.0675 764.349C91.0675 762.562 90.8928 761.176 90.5435 760.192L85.8898 769.482C86.3929 770.202 87.0847 770.563 87.9651 770.563Z" fill="url(#paint23_linear_175_198)" fill-opacity="0.6"/>
<path d="M89.2228 794.148H92.3043V795.249H84.3176V794.148H87.8812V782.468L84.4853 784.484L83.8984 783.549L88.0909 780.972H89.2228V794.148Z" fill="url(#paint24_linear_175_198)" fill-opacity="0.6"/>
<path d="M89.2228 817.899H92.3043V819H84.3176V817.899H87.8812V806.219L84.4853 808.235L83.8984 807.3L88.0909 804.723H89.2228V817.899Z" fill="url(#paint25_linear_175_198)" fill-opacity="0.6"/>
<path d="M29.5698 543.253C31.0651 543.253 32.1971 543.884 32.9657 545.144C33.7483 546.391 34.1396 548.206 34.1396 550.589C34.1396 552.972 33.7483 554.794 32.9657 556.055C32.1971 557.316 31.0651 557.946 29.5698 557.946C28.0885 557.946 26.9565 557.316 26.1739 556.055C25.3913 554.794 25 552.972 25 550.589C25 548.22 25.3913 546.405 26.1739 545.144C26.9565 543.884 28.0885 543.253 29.5698 543.253ZM26.4883 550.589C26.4883 552.28 26.6421 553.603 26.9495 554.559L31.6032 545.352C31.114 544.701 30.4363 544.375 29.5698 544.375C28.6055 544.375 27.8509 544.888 27.3059 545.913C26.7608 546.925 26.4883 548.483 26.4883 550.589ZM29.5698 556.803C30.5481 556.803 31.3097 556.297 31.8547 555.286C32.3997 554.261 32.6722 552.695 32.6722 550.589C32.6722 548.802 32.4976 547.417 32.1482 546.433L27.4945 555.722C27.9976 556.443 28.6894 556.803 29.5698 556.803Z" fill="url(#paint26_linear_175_198)" fill-opacity="0.6"/>
<path d="M29.5698 567.004C31.0651 567.004 32.1971 567.635 32.9657 568.895C33.7483 570.142 34.1396 571.957 34.1396 574.34C34.1396 576.723 33.7483 578.545 32.9657 579.806C32.1971 581.067 31.0651 581.697 29.5698 581.697C28.0885 581.697 26.9565 581.067 26.1739 579.806C25.3913 578.545 25 576.723 25 574.34C25 571.971 25.3913 570.156 26.1739 568.895C26.9565 567.635 28.0885 567.004 29.5698 567.004ZM26.4883 574.34C26.4883 576.031 26.6421 577.354 26.9495 578.31L31.6032 569.103C31.114 568.452 30.4363 568.126 29.5698 568.126C28.6055 568.126 27.8509 568.639 27.3059 569.664C26.7608 570.676 26.4883 572.234 26.4883 574.34ZM29.5698 580.554C30.5481 580.554 31.3097 580.049 31.8547 579.037C32.3997 578.012 32.6722 576.446 32.6722 574.34C32.6722 572.553 32.4976 571.168 32.1482 570.184L27.4945 579.474C27.9976 580.194 28.6894 580.554 29.5698 580.554Z" fill="url(#paint27_linear_175_198)" fill-opacity="0.6"/>
<path d="M30.8276 604.139H33.909V605.24H25.9223V604.139H29.486V592.459L26.09 594.475L25.5031 593.54L29.6956 590.963H30.8276V604.139Z" fill="url(#paint28_linear_175_198)" fill-opacity="0.6"/>
<path d="M29.5698 614.506C31.0651 614.506 32.1971 615.137 32.9657 616.398C33.7483 617.644 34.1396 619.459 34.1396 621.842C34.1396 624.225 33.7483 626.047 32.9657 627.308C32.1971 628.569 31.0651 629.199 29.5698 629.199C28.0885 629.199 26.9565 628.569 26.1739 627.308C25.3913 626.047 25 624.225 25 621.842C25 619.473 25.3913 617.658 26.1739 616.398C26.9565 615.137 28.0885 614.506 29.5698 614.506ZM26.4883 621.842C26.4883 623.533 26.6421 624.856 26.9495 625.812L31.6032 616.605C31.114 615.954 30.4363 615.629 29.5698 615.629C28.6055 615.629 27.8509 616.141 27.3059 617.166C26.7608 618.178 26.4883 619.737 26.4883 621.842ZM29.5698 628.056C30.5481 628.056 31.3097 627.551 31.8547 626.539C32.3997 625.514 32.6722 623.948 32.6722 621.842C32.6722 620.055 32.4976 618.67 32.1482 617.686L27.4945 626.976C27.9976 627.696 28.6894 628.056 29.5698 628.056Z" fill="url(#paint29_linear_175_198)" fill-opacity="0.6"/>
<path d="M30.8276 651.641H33.909V652.743H25.9223V651.641H29.486V639.962L26.09 641.977L25.5031 641.042L29.6956 638.465H30.8276V651.641Z" fill="url(#paint30_linear_175_198)" fill-opacity="0.6"/>
<path d="M30.8276 675.392H33.909V676.494H25.9223V675.392H29.486V663.713L26.09 665.728L25.5031 664.793L29.6956 662.216H30.8276V675.392Z" fill="url(#paint31_linear_175_198)" fill-opacity="0.6"/>
<path d="M69.7577 509.135H72.8392V510.236H64.8525V509.135H68.4162V497.455L65.0202 499.471L64.4333 498.536L68.6258 495.959H69.7577V509.135Z" fill="url(#paint32_linear_175_198)" fill-opacity="0.6"/>
<path d="M68.5 519.502C69.9953 519.502 71.1273 520.133 71.8959 521.393C72.6785 522.64 73.0698 524.455 73.0698 526.838C73.0698 529.221 72.6785 531.043 71.8959 532.304C71.1273 533.565 69.9953 534.195 68.5 534.195C67.0187 534.195 65.8867 533.565 65.1041 532.304C64.3215 531.043 63.9302 529.221 63.9302 526.838C63.9302 524.469 64.3215 522.654 65.1041 521.393C65.8867 520.133 67.0187 519.502 68.5 519.502ZM65.4185 526.838C65.4185 528.529 65.5723 529.852 65.8797 530.808L70.5334 521.601C70.0442 520.95 69.3664 520.624 68.5 520.624C67.5357 520.624 66.7811 521.137 66.2361 522.162C65.691 523.174 65.4185 524.732 65.4185 526.838ZM68.5 533.052C69.4782 533.052 70.2399 532.546 70.7849 531.535C71.3299 530.51 71.6024 528.944 71.6024 526.838C71.6024 525.051 71.4277 523.665 71.0784 522.682L66.4247 531.971C66.9278 532.692 67.6196 533.052 68.5 533.052Z" fill="url(#paint33_linear_175_198)" fill-opacity="0.6"/>
<path d="M69.7577 556.637H72.8392V557.738H64.8525V556.637H68.4162V544.957L65.0202 546.973L64.4333 546.038L68.6258 543.461H69.7577V556.637Z" fill="url(#paint34_linear_175_198)" fill-opacity="0.6"/>
<path d="M69.7577 580.388H72.8392V581.489H64.8525V580.388H68.4162V568.708L65.0202 570.724L64.4333 569.789L68.6258 567.212H69.7577V580.388Z" fill="url(#paint35_linear_175_198)" fill-opacity="0.6"/>
<path d="M68.5 590.755C69.9953 590.755 71.1273 591.386 71.8959 592.646C72.6785 593.893 73.0698 595.708 73.0698 598.091C73.0698 600.474 72.6785 602.296 71.8959 603.557C71.1273 604.818 69.9953 605.448 68.5 605.448C67.0187 605.448 65.8867 604.818 65.1041 603.557C64.3215 602.296 63.9302 600.474 63.9302 598.091C63.9302 595.722 64.3215 593.907 65.1041 592.646C65.8867 591.386 67.0187 590.755 68.5 590.755ZM65.4185 598.091C65.4185 599.782 65.5723 601.105 65.8797 602.061L70.5334 592.854C70.0442 592.203 69.3664 591.878 68.5 591.878C67.5357 591.878 66.7811 592.39 66.2361 593.415C65.691 594.427 65.4185 595.985 65.4185 598.091ZM68.5 604.305C69.4782 604.305 70.2399 603.8 70.7849 602.788C71.3299 601.763 71.6024 600.197 71.6024 598.091C71.6024 596.304 71.4277 594.919 71.0784 593.935L66.4247 603.225C66.9278 603.945 67.6196 604.305 68.5 604.305Z" fill="url(#paint36_linear_175_198)" fill-opacity="0.6"/>
<path d="M69.7577 627.89H72.8392V628.992H64.8525V627.89H68.4162V616.21L65.0202 618.226L64.4333 617.291L68.6258 614.714H69.7577V627.89Z" fill="url(#paint37_linear_175_198)" fill-opacity="0.6"/>
<path d="M69.7577 651.641H72.8392V652.743H64.8525V651.641H68.4162V639.962L65.0202 641.977L64.4333 641.042L68.6258 638.465H69.7577V651.641Z" fill="url(#paint38_linear_175_198)" fill-opacity="0.6"/>
<path d="M68.5 662.008C69.9953 662.008 71.1273 662.639 71.8959 663.9C72.6785 665.147 73.0698 666.962 73.0698 669.345C73.0698 671.728 72.6785 673.549 71.8959 674.81C71.1273 676.071 69.9953 676.701 68.5 676.701C67.0187 676.701 65.8867 676.071 65.1041 674.81C64.3215 673.549 63.9302 671.728 63.9302 669.345C63.9302 666.975 64.3215 665.16 65.1041 663.9C65.8867 662.639 67.0187 662.008 68.5 662.008ZM65.4185 669.345C65.4185 671.035 65.5723 672.358 65.8797 673.314L70.5334 664.107C70.0442 663.456 69.3664 663.131 68.5 663.131C67.5357 663.131 66.7811 663.643 66.2361 664.669C65.691 665.68 65.4185 667.239 65.4185 669.345ZM68.5 675.558C69.4782 675.558 70.2399 675.053 70.7849 674.041C71.3299 673.016 71.6024 671.451 71.6024 669.345C71.6024 667.557 71.4277 666.172 71.0784 665.188L66.4247 674.478C66.9278 675.198 67.6196 675.558 68.5 675.558Z" fill="url(#paint39_linear_175_198)" fill-opacity="0.6"/>
<path d="M69.7577 699.143H72.8392V700.245H64.8525V699.143H68.4162V687.464L65.0202 689.48L64.4333 688.544L68.6258 685.967H69.7577V699.143Z" fill="url(#paint40_linear_175_198)" fill-opacity="0.6"/>
<path d="M68.5 709.511C69.9953 709.511 71.1273 710.141 71.8959 711.402C72.6785 712.649 73.0698 714.464 73.0698 716.847C73.0698 719.23 72.6785 721.052 71.8959 722.312C71.1273 723.573 69.9953 724.204 68.5 724.204C67.0187 724.204 65.8867 723.573 65.1041 722.312C64.3215 721.052 63.9302 719.23 63.9302 716.847C63.9302 714.478 64.3215 712.663 65.1041 711.402C65.8867 710.141 67.0187 709.511 68.5 709.511ZM65.4185 716.847C65.4185 718.537 65.5723 719.86 65.8797 720.816L70.5334 711.61C70.0442 710.958 69.3664 710.633 68.5 710.633C67.5357 710.633 66.7811 711.145 66.2361 712.171C65.691 713.182 65.4185 714.741 65.4185 716.847ZM68.5 723.061C69.4782 723.061 70.2399 722.555 70.7849 721.543C71.3299 720.518 71.6024 718.953 71.6024 716.847C71.6024 715.059 71.4277 713.674 71.0784 712.69L66.4247 721.98C66.9278 722.7 67.6196 723.061 68.5 723.061Z" fill="url(#paint41_linear_175_198)" fill-opacity="0.6"/>
<path d="M107.43 495.751C108.926 495.751 110.057 496.381 110.826 497.642C111.609 498.889 112 500.704 112 503.087C112 505.47 111.609 507.292 110.826 508.553C110.057 509.814 108.926 510.444 107.43 510.444C105.949 510.444 104.817 509.814 104.034 508.553C103.252 507.292 102.86 505.47 102.86 503.087C102.86 500.718 103.252 498.903 104.034 497.642C104.817 496.381 105.949 495.751 107.43 495.751ZM104.349 503.087C104.349 504.777 104.502 506.101 104.81 507.057L109.464 497.85C108.974 497.199 108.297 496.873 107.43 496.873C106.466 496.873 105.711 497.386 105.166 498.411C104.621 499.423 104.349 500.981 104.349 503.087ZM107.43 509.301C108.408 509.301 109.17 508.795 109.715 507.784C110.26 506.759 110.533 505.193 110.533 503.087C110.533 501.3 110.358 499.914 110.009 498.931L105.355 508.22C105.858 508.941 106.55 509.301 107.43 509.301Z" fill="url(#paint42_linear_175_198)" fill-opacity="0.6"/>
<path d="M108.688 532.886H111.769V533.987H103.783V532.886H107.346V521.206L103.95 523.222L103.363 522.287L107.556 519.71H108.688V532.886Z" fill="url(#paint43_linear_175_198)" fill-opacity="0.6"/>
<path d="M108.688 556.637H111.769V557.738H103.783V556.637H107.346V544.957L103.95 546.973L103.363 546.038L107.556 543.461H108.688V556.637Z" fill="url(#paint44_linear_175_198)" fill-opacity="0.6"/>
<path d="M107.43 567.004C108.926 567.004 110.057 567.635 110.826 568.895C111.609 570.142 112 571.957 112 574.34C112 576.723 111.609 578.545 110.826 579.806C110.057 581.067 108.926 581.697 107.43 581.697C105.949 581.697 104.817 581.067 104.034 579.806C103.252 578.545 102.86 576.723 102.86 574.34C102.86 571.971 103.252 570.156 104.034 568.895C104.817 567.635 105.949 567.004 107.43 567.004ZM104.349 574.34C104.349 576.031 104.502 577.354 104.81 578.31L109.464 569.103C108.974 568.452 108.297 568.126 107.43 568.126C106.466 568.126 105.711 568.639 105.166 569.664C104.621 570.676 104.349 572.234 104.349 574.34ZM107.43 580.554C108.408 580.554 109.17 580.049 109.715 579.037C110.26 578.012 110.533 576.446 110.533 574.34C110.533 572.553 110.358 571.168 110.009 570.184L105.355 579.474C105.858 580.194 106.55 580.554 107.43 580.554Z" fill="url(#paint45_linear_175_198)" fill-opacity="0.6"/>
<path d="M107.43 590.755C108.926 590.755 110.057 591.386 110.826 592.646C111.609 593.893 112 595.708 112 598.091C112 600.474 111.609 602.296 110.826 603.557C110.057 604.818 108.926 605.448 107.43 605.448C105.949 605.448 104.817 604.818 104.034 603.557C103.252 602.296 102.86 600.474 102.86 598.091C102.86 595.722 103.252 593.907 104.034 592.646C104.817 591.386 105.949 590.755 107.43 590.755ZM104.349 598.091C104.349 599.782 104.502 601.105 104.81 602.061L109.464 592.854C108.974 592.203 108.297 591.878 107.43 591.878C106.466 591.878 105.711 592.39 105.166 593.415C104.621 594.427 104.349 595.985 104.349 598.091ZM107.43 604.305C108.408 604.305 109.17 603.8 109.715 602.788C110.26 601.763 110.533 600.197 110.533 598.091C110.533 596.304 110.358 594.919 110.009 593.935L105.355 603.225C105.858 603.945 106.55 604.305 107.43 604.305Z" fill="url(#paint46_linear_175_198)" fill-opacity="0.6"/>
<g opacity="0.6">
<path d="M935.93 172C937.356 172 938.436 172.605 939.17 173.815C939.916 175.011 940.29 176.753 940.29 179.04C940.29 181.327 939.916 183.075 939.17 184.285C938.436 185.495 937.356 186.1 935.93 186.1C934.517 186.1 933.437 185.495 932.69 184.285C931.943 183.075 931.57 181.327 931.57 179.04C931.57 176.767 931.943 175.025 932.69 173.815C933.437 172.605 934.517 172 935.93 172ZM932.99 179.04C932.99 180.662 933.137 181.932 933.43 182.849L937.87 174.014C937.403 173.389 936.756 173.077 935.93 173.077C935.01 173.077 934.29 173.569 933.77 174.553C933.25 175.523 932.99 177.019 932.99 179.04ZM935.93 185.003C936.863 185.003 937.59 184.518 938.11 183.547C938.63 182.564 938.89 181.061 938.89 179.04C938.89 177.325 938.723 175.995 938.39 175.051L933.95 183.966C934.43 184.658 935.09 185.003 935.93 185.003Z" fill="url(#paint47_linear_175_198)"/>
<path d="M937.13 207.637H940.07V208.694H932.45V207.637H935.85V196.428L932.61 198.363L932.05 197.465L936.05 194.992H937.13V207.637Z" fill="url(#paint48_linear_175_198)"/>
<path d="M935.93 217.586C937.356 217.586 938.436 218.191 939.17 219.4C939.916 220.597 940.29 222.339 940.29 224.626C940.29 226.913 939.916 228.661 939.17 229.871C938.436 231.081 937.356 231.686 935.93 231.686C934.517 231.686 933.437 231.081 932.69 229.871C931.943 228.661 931.57 226.913 931.57 224.626C931.57 222.352 931.943 220.61 932.69 219.4C933.437 218.191 934.517 217.586 935.93 217.586ZM932.99 224.626C932.99 226.248 933.137 227.518 933.43 228.435L937.87 219.6C937.403 218.975 936.756 218.663 935.93 218.663C935.01 218.663 934.29 219.155 933.77 220.138C933.25 221.109 932.99 222.605 932.99 224.626ZM935.93 230.589C936.863 230.589 937.59 230.104 938.11 229.133C938.63 228.149 938.89 226.647 938.89 224.626C938.89 222.911 938.723 221.581 938.39 220.637L933.95 229.552C934.43 230.243 935.09 230.589 935.93 230.589Z" fill="url(#paint49_linear_175_198)"/>
<path d="M937.13 253.222H940.07V254.279H932.45V253.222H935.85V242.014L932.61 243.948L932.05 243.051L936.05 240.578H937.13V253.222Z" fill="url(#paint50_linear_175_198)"/>
<path d="M937.13 276.015H940.07V277.072H932.45V276.015H935.85V264.807L932.61 266.741L932.05 265.844L936.05 263.371H937.13V276.015Z" fill="url(#paint51_linear_175_198)"/>
<path d="M935.93 285.964C937.356 285.964 938.436 286.569 939.17 287.779C939.916 288.976 940.29 290.717 940.29 293.004C940.29 295.291 939.916 297.039 939.17 298.249C938.436 299.459 937.356 300.064 935.93 300.064C934.517 300.064 933.437 299.459 932.69 298.249C931.943 297.039 931.57 295.291 931.57 293.004C931.57 290.731 931.943 288.989 932.69 287.779C933.437 286.569 934.517 285.964 935.93 285.964ZM932.99 293.004C932.99 294.626 933.137 295.896 933.43 296.813L937.87 287.978C937.403 287.353 936.756 287.041 935.93 287.041C935.01 287.041 934.29 287.533 933.77 288.517C933.25 289.487 932.99 290.983 932.99 293.004ZM935.93 298.967C936.863 298.967 937.59 298.482 938.11 297.511C938.63 296.528 938.89 295.025 938.89 293.004C938.89 291.289 938.723 289.959 938.39 289.015L933.95 297.93C934.43 298.622 935.09 298.967 935.93 298.967Z" fill="url(#paint52_linear_175_198)"/>
<path d="M937.13 321.601H940.07V322.658H932.45V321.601H935.85V310.392L932.61 312.327L932.05 311.429L936.05 308.956H937.13V321.601Z" fill="url(#paint53_linear_175_198)"/>
<path d="M935.93 331.55C937.356 331.55 938.436 332.155 939.17 333.365C939.916 334.561 940.29 336.303 940.29 338.59C940.29 340.877 939.916 342.625 939.17 343.835C938.436 345.045 937.356 345.65 935.93 345.65C934.517 345.65 933.437 345.045 932.69 343.835C931.943 342.625 931.57 340.877 931.57 338.59C931.57 336.316 931.943 334.574 932.69 333.365C933.437 332.155 934.517 331.55 935.93 331.55ZM932.99 338.59C932.99 340.212 933.137 341.482 933.43 342.399L937.87 333.564C937.403 332.939 936.756 332.627 935.93 332.627C935.01 332.627 934.29 333.119 933.77 334.102C933.25 335.073 932.99 336.569 932.99 338.59ZM935.93 344.553C936.863 344.553 937.59 344.068 938.11 343.097C938.63 342.113 938.89 340.611 938.89 338.59C938.89 336.875 938.723 335.545 938.39 334.601L933.95 343.516C934.43 344.207 935.09 344.553 935.93 344.553Z" fill="url(#paint54_linear_175_198)"/>
<path d="M935.93 354.342C937.356 354.342 938.436 354.947 939.17 356.157C939.916 357.354 940.29 359.096 940.29 361.383C940.29 363.669 939.916 365.418 939.17 366.628C938.436 367.838 937.356 368.443 935.93 368.443C934.517 368.443 933.437 367.838 932.69 366.628C931.943 365.418 931.57 363.669 931.57 361.383C931.57 359.109 931.943 357.367 932.69 356.157C933.437 354.947 934.517 354.342 935.93 354.342ZM932.99 361.383C932.99 363.005 933.137 364.274 933.43 365.192L937.87 356.357C937.403 355.732 936.756 355.419 935.93 355.419C935.01 355.419 934.29 355.911 933.77 356.895C933.25 357.866 932.99 359.362 932.99 361.383ZM935.93 367.346C936.863 367.346 937.59 366.86 938.11 365.89C938.63 364.906 938.89 363.404 938.89 361.383C938.89 359.667 938.723 358.338 938.39 357.394L933.95 366.309C934.43 367 935.09 367.346 935.93 367.346Z" fill="url(#paint55_linear_175_198)"/>
<path d="M937.13 389.979H940.07V391.036H932.45V389.979H935.85V378.771L932.61 380.705L932.05 379.808L936.05 377.335H937.13V389.979Z" fill="url(#paint56_linear_175_198)"/>
<path d="M935.93 399.928C937.356 399.928 938.436 400.533 939.17 401.743C939.916 402.94 940.29 404.681 940.29 406.968C940.29 409.255 939.916 411.003 939.17 412.213C938.436 413.423 937.356 414.028 935.93 414.028C934.517 414.028 933.437 413.423 932.69 412.213C931.943 411.003 931.57 409.255 931.57 406.968C931.57 404.695 931.943 402.953 932.69 401.743C933.437 400.533 934.517 399.928 935.93 399.928ZM932.99 406.968C932.99 408.59 933.137 409.86 933.43 410.777L937.87 401.942C937.403 401.317 936.756 401.005 935.93 401.005C935.01 401.005 934.29 401.497 933.77 402.481C933.25 403.451 932.99 404.947 932.99 406.968ZM935.93 412.931C936.863 412.931 937.59 412.446 938.11 411.475C938.63 410.492 938.89 408.989 938.89 406.968C938.89 405.253 938.723 403.923 938.39 402.979L933.95 411.894C934.43 412.586 935.09 412.931 935.93 412.931Z" fill="url(#paint57_linear_175_198)"/>
<path d="M937.13 435.565H940.07V436.622H932.45V435.565H935.85V424.356L932.61 426.291L932.05 425.393L936.05 422.92H937.13V435.565Z" fill="url(#paint58_linear_175_198)"/>
<path d="M937.13 458.357H940.07V459.414H932.45V458.357H935.85V447.149L932.61 449.084L932.05 448.186L936.05 445.713H937.13V458.357Z" fill="url(#paint59_linear_175_198)"/>
<path d="M973.07 217.586C974.497 217.586 975.577 218.191 976.31 219.4C977.057 220.597 977.43 222.339 977.43 224.626C977.43 226.913 977.057 228.661 976.31 229.871C975.577 231.081 974.497 231.686 973.07 231.686C971.657 231.686 970.577 231.081 969.83 229.871C969.084 228.661 968.71 226.913 968.71 224.626C968.71 222.352 969.084 220.61 969.83 219.4C970.577 218.191 971.657 217.586 973.07 217.586ZM970.13 224.626C970.13 226.248 970.277 227.518 970.57 228.435L975.01 219.6C974.543 218.975 973.897 218.663 973.07 218.663C972.15 218.663 971.43 219.155 970.91 220.138C970.39 221.109 970.13 222.605 970.13 224.626ZM973.07 230.589C974.003 230.589 974.73 230.104 975.25 229.133C975.77 228.149 976.03 226.647 976.03 224.626C976.03 222.911 975.863 221.581 975.53 220.637L971.09 229.552C971.57 230.243 972.23 230.589 973.07 230.589Z" fill="url(#paint60_linear_175_198)"/>
<path d="M974.27 253.222H977.21V254.279H969.59V253.222H972.99V242.014L969.75 243.948L969.19 243.051L973.19 240.578H974.27V253.222Z" fill="url(#paint61_linear_175_198)"/>
<path d="M973.07 263.171C974.497 263.171 975.577 263.776 976.31 264.986C977.057 266.183 977.43 267.924 977.43 270.211C977.43 272.498 977.057 274.247 976.31 275.457C975.577 276.666 974.497 277.271 973.07 277.271C971.657 277.271 970.577 276.666 969.83 275.457C969.084 274.247 968.71 272.498 968.71 270.211C968.71 267.938 969.084 266.196 969.83 264.986C970.577 263.776 971.657 263.171 973.07 263.171ZM970.13 270.211C970.13 271.833 970.277 273.103 970.57 274.021L975.01 265.186C974.543 264.561 973.897 264.248 973.07 264.248C972.15 264.248 971.43 264.74 970.91 265.724C970.39 266.695 970.13 268.19 970.13 270.211ZM973.07 276.174C974.003 276.174 974.73 275.689 975.25 274.719C975.77 273.735 976.03 272.232 976.03 270.211C976.03 268.496 975.863 267.167 975.53 266.223L971.09 275.137C971.57 275.829 972.23 276.174 973.07 276.174Z" fill="url(#paint62_linear_175_198)"/>
<path d="M973.07 285.964C974.497 285.964 975.577 286.569 976.31 287.779C977.057 288.976 977.43 290.717 977.43 293.004C977.43 295.291 977.057 297.039 976.31 298.249C975.577 299.459 974.497 300.064 973.07 300.064C971.657 300.064 970.577 299.459 969.83 298.249C969.084 297.039 968.71 295.291 968.71 293.004C968.71 290.731 969.084 288.989 969.83 287.779C970.577 286.569 971.657 285.964 973.07 285.964ZM970.13 293.004C970.13 294.626 970.277 295.896 970.57 296.813L975.01 287.978C974.543 287.353 973.897 287.041 973.07 287.041C972.15 287.041 971.43 287.533 970.91 288.517C970.39 289.487 970.13 290.983 970.13 293.004ZM973.07 298.967C974.003 298.967 974.73 298.482 975.25 297.511C975.77 296.528 976.03 295.025 976.03 293.004C976.03 291.289 975.863 289.959 975.53 289.015L971.09 297.93C971.57 298.622 972.23 298.967 973.07 298.967Z" fill="url(#paint63_linear_175_198)"/>
<path d="M974.27 321.601H977.21V322.658H969.59V321.601H972.99V310.392L969.75 312.327L969.19 311.429L973.19 308.956H974.27V321.601Z" fill="url(#paint64_linear_175_198)"/>
<path d="M973.07 331.55C974.497 331.55 975.577 332.155 976.31 333.365C977.057 334.561 977.43 336.303 977.43 338.59C977.43 340.877 977.057 342.625 976.31 343.835C975.577 345.045 974.497 345.65 973.07 345.65C971.657 345.65 970.577 345.045 969.83 343.835C969.084 342.625 968.71 340.877 968.71 338.59C968.71 336.316 969.084 334.574 969.83 333.365C970.577 332.155 971.657 331.55 973.07 331.55ZM970.13 338.59C970.13 340.212 970.277 341.482 970.57 342.399L975.01 333.564C974.543 332.939 973.897 332.627 973.07 332.627C972.15 332.627 971.43 333.119 970.91 334.102C970.39 335.073 970.13 336.569 970.13 338.59ZM973.07 344.553C974.003 344.553 974.73 344.068 975.25 343.097C975.77 342.113 976.03 340.611 976.03 338.59C976.03 336.875 975.863 335.545 975.53 334.601L971.09 343.516C971.57 344.207 972.23 344.553 973.07 344.553Z" fill="url(#paint65_linear_175_198)"/>
<path d="M974.27 367.186H977.21V368.243H969.59V367.186H972.99V355.978L969.75 357.912L969.19 357.015L973.19 354.542H974.27V367.186Z" fill="url(#paint66_linear_175_198)"/>
<path d="M973.07 377.135C974.497 377.135 975.577 377.74 976.31 378.95C977.057 380.147 977.43 381.888 977.43 384.175C977.43 386.462 977.057 388.211 976.31 389.421C975.577 390.63 974.497 391.235 973.07 391.235C971.657 391.235 970.577 390.63 969.83 389.421C969.084 388.211 968.71 386.462 968.71 384.175C968.71 381.902 969.084 380.16 969.83 378.95C970.577 377.74 971.657 377.135 973.07 377.135ZM970.13 384.175C970.13 385.797 970.277 387.067 970.57 387.985L975.01 379.15C974.543 378.525 973.897 378.212 973.07 378.212C972.15 378.212 971.43 378.704 970.91 379.688C970.39 380.659 970.13 382.154 970.13 384.175ZM973.07 390.139C974.003 390.139 974.73 389.653 975.25 388.683C975.77 387.699 976.03 386.196 976.03 384.175C976.03 382.46 975.863 381.131 975.53 380.187L971.09 389.101C971.57 389.793 972.23 390.139 973.07 390.139Z" fill="url(#paint67_linear_175_198)"/>
<path d="M973.07 399.928C974.497 399.928 975.577 400.533 976.31 401.743C977.057 402.94 977.43 404.681 977.43 406.968C977.43 409.255 977.057 411.003 976.31 412.213C975.577 413.423 974.497 414.028 973.07 414.028C971.657 414.028 970.577 413.423 969.83 412.213C969.084 411.003 968.71 409.255 968.71 406.968C968.71 404.695 969.084 402.953 969.83 401.743C970.577 400.533 971.657 399.928 973.07 399.928ZM970.13 406.968C970.13 408.59 970.277 409.86 970.57 410.777L975.01 401.942C974.543 401.317 973.897 401.005 973.07 401.005C972.15 401.005 971.43 401.497 970.91 402.481C970.39 403.451 970.13 404.947 970.13 406.968ZM973.07 412.931C974.003 412.931 974.73 412.446 975.25 411.475C975.77 410.492 976.03 408.989 976.03 406.968C976.03 405.253 975.863 403.923 975.53 402.979L971.09 411.894C971.57 412.586 972.23 412.931 973.07 412.931Z" fill="url(#paint68_linear_175_198)"/>
<path d="M974.27 435.565H977.21V436.622H969.59V435.565H972.99V424.356L969.75 426.291L969.19 425.393L973.19 422.92H974.27V435.565Z" fill="url(#paint69_linear_175_198)"/>
<path d="M973.07 445.514C974.497 445.514 975.577 446.119 976.31 447.329C977.057 448.525 977.43 450.267 977.43 452.554C977.43 454.841 977.057 456.589 976.31 457.799C975.577 459.009 974.497 459.614 973.07 459.614C971.657 459.614 970.577 459.009 969.83 457.799C969.084 456.589 968.71 454.841 968.71 452.554C968.71 450.28 969.084 448.538 969.83 447.329C970.577 446.119 971.657 445.514 973.07 445.514ZM970.13 452.554C970.13 454.176 970.277 455.446 970.57 456.363L975.01 447.528C974.543 446.903 973.897 446.591 973.07 446.591C972.15 446.591 971.43 447.083 970.91 448.066C970.39 449.037 970.13 450.533 970.13 452.554ZM973.07 458.517C974.003 458.517 974.73 458.032 975.25 457.061C975.77 456.077 976.03 454.575 976.03 452.554C976.03 450.839 975.863 449.509 975.53 448.565L971.09 457.48C971.57 458.171 972.23 458.517 973.07 458.517Z" fill="url(#paint70_linear_175_198)"/>
<path d="M974.27 481.15H977.21V482.207H969.59V481.15H972.99V469.942L969.75 471.876L969.19 470.979L973.19 468.506H974.27V481.15Z" fill="url(#paint71_linear_175_198)"/>
<path d="M974.27 503.943H977.21V505H969.59V503.943H972.99V492.735L969.75 494.669L969.19 493.772L973.19 491.299H974.27V503.943Z" fill="url(#paint72_linear_175_198)"/>
<path d="M917.36 240.378C918.786 240.378 919.866 240.983 920.599 242.193C921.346 243.39 921.719 245.132 921.719 247.419C921.719 249.705 921.346 251.454 920.599 252.664C919.866 253.874 918.786 254.479 917.36 254.479C915.946 254.479 914.867 253.874 914.12 252.664C913.373 251.454 913 249.705 913 247.419C913 245.145 913.373 243.403 914.12 242.193C914.867 240.983 915.946 240.378 917.36 240.378ZM914.42 247.419C914.42 249.041 914.567 250.31 914.86 251.228L919.3 242.393C918.833 241.768 918.186 241.455 917.36 241.455C916.44 241.455 915.72 241.947 915.2 242.931C914.68 243.902 914.42 245.398 914.42 247.419ZM917.36 253.382C918.293 253.382 919.02 252.896 919.54 251.926C920.06 250.942 920.319 249.44 920.319 247.419C920.319 245.703 920.153 244.374 919.82 243.43L915.38 252.345C915.86 253.036 916.52 253.382 917.36 253.382Z" fill="url(#paint73_linear_175_198)"/>
<path d="M917.36 263.171C918.786 263.171 919.866 263.776 920.599 264.986C921.346 266.183 921.719 267.924 921.719 270.211C921.719 272.498 921.346 274.247 920.599 275.457C919.866 276.666 918.786 277.271 917.36 277.271C915.946 277.271 914.867 276.666 914.12 275.457C913.373 274.247 913 272.498 913 270.211C913 267.938 913.373 266.196 914.12 264.986C914.867 263.776 915.946 263.171 917.36 263.171ZM914.42 270.211C914.42 271.833 914.567 273.103 914.86 274.021L919.3 265.186C918.833 264.561 918.186 264.248 917.36 264.248C916.44 264.248 915.72 264.74 915.2 265.724C914.68 266.695 914.42 268.19 914.42 270.211ZM917.36 276.174C918.293 276.174 919.02 275.689 919.54 274.719C920.06 273.735 920.319 272.232 920.319 270.211C920.319 268.496 920.153 267.167 919.82 266.223L915.38 275.137C915.86 275.829 916.52 276.174 917.36 276.174Z" fill="url(#paint74_linear_175_198)"/>
<path d="M918.56 298.808H921.499V299.865H913.88V298.808H917.28V287.599L914.04 289.534L913.48 288.636L917.48 286.163H918.56V298.808Z" fill="url(#paint75_linear_175_198)"/>
<path d="M917.36 308.757C918.786 308.757 919.866 309.362 920.599 310.572C921.346 311.768 921.719 313.51 921.719 315.797C921.719 318.084 921.346 319.832 920.599 321.042C919.866 322.252 918.786 322.857 917.36 322.857C915.946 322.857 914.867 322.252 914.12 321.042C913.373 319.832 913 318.084 913 315.797C913 313.523 913.373 311.782 914.12 310.572C914.867 309.362 915.946 308.757 917.36 308.757ZM914.42 315.797C914.42 317.419 914.567 318.689 914.86 319.606L919.3 310.771C918.833 310.146 918.186 309.834 917.36 309.834C916.44 309.834 915.72 310.326 915.2 311.31C914.68 312.28 914.42 313.776 914.42 315.797ZM917.36 321.76C918.293 321.76 919.02 321.275 919.54 320.304C920.06 319.32 920.319 317.818 920.319 315.797C920.319 314.082 920.153 312.752 919.82 311.808L915.38 320.723C915.86 321.414 916.52 321.76 917.36 321.76Z" fill="url(#paint76_linear_175_198)"/>
<path d="M918.56 344.393H921.499V345.45H913.88V344.393H917.28V333.185L914.04 335.12L913.48 334.222L917.48 331.749H918.56V344.393Z" fill="url(#paint77_linear_175_198)"/>
<path d="M918.56 367.186H921.499V368.243H913.88V367.186H917.28V355.978L914.04 357.912L913.48 357.015L917.48 354.542H918.56V367.186Z" fill="url(#paint78_linear_175_198)"/>
<path d="M955.7 207.637H958.64V208.694H951.02V207.637H954.42V196.428L951.18 198.363L950.62 197.465L954.62 194.992H955.7V207.637Z" fill="url(#paint79_linear_175_198)"/>
<path d="M954.5 217.586C955.927 217.586 957.006 218.191 957.74 219.4C958.486 220.597 958.86 222.339 958.86 224.626C958.86 226.913 958.486 228.661 957.74 229.871C957.006 231.081 955.927 231.686 954.5 231.686C953.087 231.686 952.007 231.081 951.26 229.871C950.514 228.661 950.14 226.913 950.14 224.626C950.14 222.352 950.514 220.61 951.26 219.4C952.007 218.191 953.087 217.586 954.5 217.586ZM951.56 224.626C951.56 226.248 951.707 227.518 952 228.435L956.44 219.6C955.973 218.975 955.327 218.663 954.5 218.663C953.58 218.663 952.86 219.155 952.34 220.138C951.82 221.109 951.56 222.605 951.56 224.626ZM954.5 230.589C955.433 230.589 956.16 230.104 956.68 229.133C957.2 228.149 957.46 226.647 957.46 224.626C957.46 222.911 957.293 221.581 956.96 220.637L952.52 229.552C953 230.243 953.66 230.589 954.5 230.589Z" fill="url(#paint80_linear_175_198)"/>
<path d="M955.7 253.222H958.64V254.279H951.02V253.222H954.42V242.014L951.18 243.948L950.62 243.051L954.62 240.578H955.7V253.222Z" fill="url(#paint81_linear_175_198)"/>
<path d="M955.7 276.015H958.64V277.072H951.02V276.015H954.42V264.807L951.18 266.741L950.62 265.844L954.62 263.371H955.7V276.015Z" fill="url(#paint82_linear_175_198)"/>
<path d="M954.5 285.964C955.927 285.964 957.006 286.569 957.74 287.779C958.486 288.976 958.86 290.717 958.86 293.004C958.86 295.291 958.486 297.039 957.74 298.249C957.006 299.459 955.927 300.064 954.5 300.064C953.087 300.064 952.007 299.459 951.26 298.249C950.514 297.039 950.14 295.291 950.14 293.004C950.14 290.731 950.514 288.989 951.26 287.779C952.007 286.569 953.087 285.964 954.5 285.964ZM951.56 293.004C951.56 294.626 951.707 295.896 952 296.813L956.44 287.978C955.973 287.353 955.327 287.041 954.5 287.041C953.58 287.041 952.86 287.533 952.34 288.517C951.82 289.487 951.56 290.983 951.56 293.004ZM954.5 298.967C955.433 298.967 956.16 298.482 956.68 297.511C957.2 296.528 957.46 295.025 957.46 293.004C957.46 291.289 957.293 289.959 956.96 289.015L952.52 297.93C953 298.622 953.66 298.967 954.5 298.967Z" fill="url(#paint83_linear_175_198)"/>
<path d="M955.7 321.601H958.64V322.658H951.02V321.601H954.42V310.392L951.18 312.327L950.62 311.429L954.62 308.956H955.7V321.601Z" fill="url(#paint84_linear_175_198)"/>
<path d="M955.7 344.393H958.64V345.45H951.02V344.393H954.42V333.185L951.18 335.12L950.62 334.222L954.62 331.749H955.7V344.393Z" fill="url(#paint85_linear_175_198)"/>
<path d="M954.5 354.342C955.927 354.342 957.006 354.947 957.74 356.157C958.486 357.354 958.86 359.096 958.86 361.383C958.86 363.669 958.486 365.418 957.74 366.628C957.006 367.838 955.927 368.443 954.5 368.443C953.087 368.443 952.007 367.838 951.26 366.628C950.514 365.418 950.14 363.669 950.14 361.383C950.14 359.109 950.514 357.367 951.26 356.157C952.007 354.947 953.087 354.342 954.5 354.342ZM951.56 361.383C951.56 363.005 951.707 364.274 952 365.192L956.44 356.357C955.973 355.732 955.327 355.419 954.5 355.419C953.58 355.419 952.86 355.911 952.34 356.895C951.82 357.866 951.56 359.362 951.56 361.383ZM954.5 367.346C955.433 367.346 956.16 366.86 956.68 365.89C957.2 364.906 957.46 363.404 957.46 361.383C957.46 359.667 957.293 358.338 956.96 357.394L952.52 366.309C953 367 953.66 367.346 954.5 367.346Z" fill="url(#paint86_linear_175_198)"/>
<path d="M955.7 389.979H958.64V391.036H951.02V389.979H954.42V378.771L951.18 380.705L950.62 379.808L954.62 377.335H955.7V389.979Z" fill="url(#paint87_linear_175_198)"/>
<path d="M954.5 399.928C955.927 399.928 957.006 400.533 957.74 401.743C958.486 402.94 958.86 404.681 958.86 406.968C958.86 409.255 958.486 411.003 957.74 412.213C957.006 413.423 955.927 414.028 954.5 414.028C953.087 414.028 952.007 413.423 951.26 412.213C950.514 411.003 950.14 409.255 950.14 406.968C950.14 404.695 950.514 402.953 951.26 401.743C952.007 400.533 953.087 399.928 954.5 399.928ZM951.56 406.968C951.56 408.59 951.707 409.86 952 410.777L956.44 401.942C955.973 401.317 955.327 401.005 954.5 401.005C953.58 401.005 952.86 401.497 952.34 402.481C951.82 403.451 951.56 404.947 951.56 406.968ZM954.5 412.931C955.433 412.931 956.16 412.446 956.68 411.475C957.2 410.492 957.46 408.989 957.46 406.968C957.46 405.253 957.293 403.923 956.96 402.979L952.52 411.894C953 412.586 953.66 412.931 954.5 412.931Z" fill="url(#paint88_linear_175_198)"/>
<path d="M991.64 194.793C993.067 194.793 994.147 195.398 994.88 196.608C995.627 197.804 996 199.546 996 201.833C996 204.12 995.627 205.868 994.88 207.078C994.147 208.288 993.067 208.893 991.64 208.893C990.227 208.893 989.147 208.288 988.401 207.078C987.654 205.868 987.281 204.12 987.281 201.833C987.281 199.559 987.654 197.818 988.401 196.608C989.147 195.398 990.227 194.793 991.64 194.793ZM988.7 201.833C988.7 203.455 988.847 204.725 989.14 205.642L993.58 196.807C993.114 196.182 992.467 195.87 991.64 195.87C990.72 195.87 990 196.362 989.48 197.346C988.96 198.316 988.7 199.812 988.7 201.833ZM991.64 207.796C992.574 207.796 993.3 207.311 993.82 206.34C994.34 205.356 994.6 203.854 994.6 201.833C994.6 200.118 994.433 198.788 994.1 197.844L989.66 206.759C990.14 207.45 990.8 207.796 991.64 207.796Z" fill="url(#paint89_linear_175_198)"/>
<path d="M992.84 230.429H995.78V231.486H988.161V230.429H991.56V219.221L988.321 221.156L987.761 220.258L991.76 217.785H992.84V230.429Z" fill="url(#paint90_linear_175_198)"/>
<path d="M992.84 253.222H995.78V254.279H988.161V253.222H991.56V242.014L988.321 243.948L987.761 243.051L991.76 240.578H992.84V253.222Z" fill="url(#paint91_linear_175_198)"/>
<path d="M991.64 263.171C993.067 263.171 994.147 263.776 994.88 264.986C995.627 266.183 996 267.924 996 270.211C996 272.498 995.627 274.247 994.88 275.457C994.147 276.666 993.067 277.271 991.64 277.271C990.227 277.271 989.147 276.666 988.401 275.457C987.654 274.247 987.281 272.498 987.281 270.211C987.281 267.938 987.654 266.196 988.401 264.986C989.147 263.776 990.227 263.171 991.64 263.171ZM988.7 270.211C988.7 271.833 988.847 273.103 989.14 274.021L993.58 265.186C993.114 264.561 992.467 264.248 991.64 264.248C990.72 264.248 990 264.74 989.48 265.724C988.96 266.695 988.7 268.19 988.7 270.211ZM991.64 276.174C992.574 276.174 993.3 275.689 993.82 274.719C994.34 273.735 994.6 272.232 994.6 270.211C994.6 268.496 994.433 267.167 994.1 266.223L989.66 275.137C990.14 275.829 990.8 276.174 991.64 276.174Z" fill="url(#paint92_linear_175_198)"/>
<path d="M991.64 285.964C993.067 285.964 994.147 286.569 994.88 287.779C995.627 288.976 996 290.717 996 293.004C996 295.291 995.627 297.039 994.88 298.249C994.147 299.459 993.067 300.064 991.64 300.064C990.227 300.064 989.147 299.459 988.401 298.249C987.654 297.039 987.281 295.291 987.281 293.004C987.281 290.731 987.654 288.989 988.401 287.779C989.147 286.569 990.227 285.964 991.64 285.964ZM988.7 293.004C988.7 294.626 988.847 295.896 989.14 296.813L993.58 287.978C993.114 287.353 992.467 287.041 991.64 287.041C990.72 287.041 990 287.533 989.48 288.517C988.96 289.487 988.7 290.983 988.7 293.004ZM991.64 298.967C992.574 298.967 993.3 298.482 993.82 297.511C994.34 296.528 994.6 295.025 994.6 293.004C994.6 291.289 994.433 289.959 994.1 289.015L989.66 297.93C990.14 298.622 990.8 298.967 991.64 298.967Z" fill="url(#paint93_linear_175_198)"/>
</g>
<defs>
<filter id="filter0_f_175_198" x="-542.19" y="-514.19" width="2141.38" height="1500.38" filterUnits="userSpaceOnUse" color-interpolation-filters="sRGB">
<feFlood flood-opacity="0" result="BackgroundImageFix"/>
<feBlend mode="normal" in="SourceGraphic" in2="BackgroundImageFix" result="shape"/>
<feGaussianBlur stdDeviation="200.095" result="effect1_foregroundBlur_175_198"/>
</filter>
<linearGradient id="paint0_linear_175_198" x1="68.5" y1="472" x2="68.5" y2="783.381" gradientUnits="userSpaceOnUse">
<stop stop-color="#F7DD43"/>
<stop offset="1" stop-color="#F7DD43" stop-opacity="0"/>
</linearGradient>
<linearGradient id="paint1_linear_175_198" x1="68.5" y1="472" x2="68.5" y2="783.381" gradientUnits="userSpaceOnUse">
<stop stop-color="#F7DD43"/>
<stop offset="1" stop-color="#F7DD43" stop-opacity="0"/>
</linearGradient>
<linearGradient id="paint2_linear_175_198" x1="68.5" y1="472" x2="68.5" y2="783.381" gradientUnits="userSpaceOnUse">
<stop stop-color="#F7DD43"/>
<stop offset="1" stop-color="#F7DD43" stop-opacity="0"/>
</linearGradient>
<linearGradient id="paint3_linear_175_198" x1="68.5" y1="472" x2="68.5" y2="783.381" gradientUnits="userSpaceOnUse">
<stop stop-color="#F7DD43"/>
<stop offset="1" stop-color="#F7DD43" stop-opacity="0"/>
</linearGradient>
<linearGradient id="paint4_linear_175_198" x1="68.5" y1="472" x2="68.5" y2="783.381" gradientUnits="userSpaceOnUse">
<stop stop-color="#F7DD43"/>
<stop offset="1" stop-color="#F7DD43" stop-opacity="0"/>
</linearGradient>
<linearGradient id="paint5_linear_175_198" x1="68.5" y1="472" x2="68.5" y2="783.381" gradientUnits="userSpaceOnUse">
<stop stop-color="#F7DD43"/>
<stop offset="1" stop-color="#F7DD43" stop-opacity="0"/>
</linearGradient>
<linearGradient id="paint6_linear_175_198" x1="68.5" y1="472" x2="68.5" y2="783.381" gradientUnits="userSpaceOnUse">
<stop stop-color="#F7DD43"/>
<stop offset="1" stop-color="#F7DD43" stop-opacity="0"/>
</linearGradient>
<linearGradient id="paint7_linear_175_198" x1="68.5" y1="472" x2="68.5" y2="783.381" gradientUnits="userSpaceOnUse">
<stop stop-color="#F7DD43"/>
<stop offset="1" stop-color="#F7DD43" stop-opacity="0"/>
</linearGradient>
<linearGradient id="paint8_linear_175_198" x1="68.5" y1="472" x2="68.5" y2="783.381" gradientUnits="userSpaceOnUse">
<stop stop-color="#F7DD43"/>
<stop offset="1" stop-color="#F7DD43" stop-opacity="0"/>
</linearGradient>
<linearGradient id="paint9_linear_175_198" x1="68.5" y1="472" x2="68.5" y2="783.381" gradientUnits="userSpaceOnUse">
<stop stop-color="#F7DD43"/>
<stop offset="1" stop-color="#F7DD43" stop-opacity="0"/>
</linearGradient>
<linearGradient id="paint10_linear_175_198" x1="68.5" y1="472" x2="68.5" y2="783.381" gradientUnits="userSpaceOnUse">
<stop stop-color="#F7DD43"/>
<stop offset="1" stop-color="#F7DD43" stop-opacity="0"/>
</linearGradient>
<linearGradient id="paint11_linear_175_198" x1="68.5" y1="472" x2="68.5" y2="783.381" gradientUnits="userSpaceOnUse">
<stop stop-color="#F7DD43"/>
<stop offset="1" stop-color="#F7DD43" stop-opacity="0"/>
</linearGradient>
<linearGradient id="paint12_linear_175_198" x1="68.5" y1="472" x2="68.5" y2="783.381" gradientUnits="userSpaceOnUse">
<stop stop-color="#F7DD43"/>
<stop offset="1" stop-color="#F7DD43" stop-opacity="0"/>
</linearGradient>
<linearGradient id="paint13_linear_175_198" x1="68.5" y1="472" x2="68.5" y2="783.381" gradientUnits="userSpaceOnUse">
<stop stop-color="#F7DD43"/>
<stop offset="1" stop-color="#F7DD43" stop-opacity="0"/>
</linearGradient>
<linearGradient id="paint14_linear_175_198" x1="68.5" y1="472" x2="68.5" y2="783.381" gradientUnits="userSpaceOnUse">
<stop stop-color="#F7DD43"/>
<stop offset="1" stop-color="#F7DD43" stop-opacity="0"/>
</linearGradient>
<linearGradient id="paint15_linear_175_198" x1="68.5" y1="472" x2="68.5" y2="783.381" gradientUnits="userSpaceOnUse">
<stop stop-color="#F7DD43"/>
<stop offset="1" stop-color="#F7DD43" stop-opacity="0"/>
</linearGradient>
<linearGradient id="paint16_linear_175_198" x1="68.5" y1="472" x2="68.5" y2="783.381" gradientUnits="userSpaceOnUse">
<stop stop-color="#F7DD43"/>
<stop offset="1" stop-color="#F7DD43" stop-opacity="0"/>
</linearGradient>
<linearGradient id="paint17_linear_175_198" x1="68.5" y1="472" x2="68.5" y2="783.381" gradientUnits="userSpaceOnUse">
<stop stop-color="#F7DD43"/>
<stop offset="1" stop-color="#F7DD43" stop-opacity="0"/>
</linearGradient>
<linearGradient id="paint18_linear_175_198" x1="68.5" y1="472" x2="68.5" y2="783.381" gradientUnits="userSpaceOnUse">
<stop stop-color="#F7DD43"/>
<stop offset="1" stop-color="#F7DD43" stop-opacity="0"/>
</linearGradient>
<linearGradient id="paint19_linear_175_198" x1="68.5" y1="472" x2="68.5" y2="783.381" gradientUnits="userSpaceOnUse">
<stop stop-color="#F7DD43"/>
<stop offset="1" stop-color="#F7DD43" stop-opacity="0"/>
</linearGradient>
<linearGradient id="paint20_linear_175_198" x1="68.5" y1="472" x2="68.5" y2="783.381" gradientUnits="userSpaceOnUse">
<stop stop-color="#F7DD43"/>
<stop offset="1" stop-color="#F7DD43" stop-opacity="0"/>
</linearGradient>
<linearGradient id="paint21_linear_175_198" x1="68.5" y1="472" x2="68.5" y2="783.381" gradientUnits="userSpaceOnUse">
<stop stop-color="#F7DD43"/>
<stop offset="1" stop-color="#F7DD43" stop-opacity="0"/>
</linearGradient>
<linearGradient id="paint22_linear_175_198" x1="68.5" y1="472" x2="68.5" y2="783.381" gradientUnits="userSpaceOnUse">
<stop stop-color="#F7DD43"/>
<stop offset="1" stop-color="#F7DD43" stop-opacity="0"/>
</linearGradient>
<linearGradient id="paint23_linear_175_198" x1="68.5" y1="472" x2="68.5" y2="783.381" gradientUnits="userSpaceOnUse">
<stop stop-color="#F7DD43"/>
<stop offset="1" stop-color="#F7DD43" stop-opacity="0"/>
</linearGradient>
<linearGradient id="paint24_linear_175_198" x1="68.5" y1="472" x2="68.5" y2="783.381" gradientUnits="userSpaceOnUse">
<stop stop-color="#F7DD43"/>
<stop offset="1" stop-color="#F7DD43" stop-opacity="0"/>
</linearGradient>
<linearGradient id="paint25_linear_175_198" x1="68.5" y1="472" x2="68.5" y2="783.381" gradientUnits="userSpaceOnUse">
<stop stop-color="#F7DD43"/>
<stop offset="1" stop-color="#F7DD43" stop-opacity="0"/>
</linearGradient>
<linearGradient id="paint26_linear_175_198" x1="68.5" y1="472" x2="68.5" y2="783.381" gradientUnits="userSpaceOnUse">
<stop stop-color="#F7DD43"/>
<stop offset="1" stop-color="#F7DD43" stop-opacity="0"/>
</linearGradient>
<linearGradient id="paint27_linear_175_198" x1="68.5" y1="472" x2="68.5" y2="783.381" gradientUnits="userSpaceOnUse">
<stop stop-color="#F7DD43"/>
<stop offset="1" stop-color="#F7DD43" stop-opacity="0"/>
</linearGradient>
<linearGradient id="paint28_linear_175_198" x1="68.5" y1="472" x2="68.5" y2="783.381" gradientUnits="userSpaceOnUse">
<stop stop-color="#F7DD43"/>
<stop offset="1" stop-color="#F7DD43" stop-opacity="0"/>
</linearGradient>
<linearGradient id="paint29_linear_175_198" x1="68.5" y1="472" x2="68.5" y2="783.381" gradientUnits="userSpaceOnUse">
<stop stop-color="#F7DD43"/>
<stop offset="1" stop-color="#F7DD43" stop-opacity="0"/>
</linearGradient>
<linearGradient id="paint30_linear_175_198" x1="68.5" y1="472" x2="68.5" y2="783.381" gradientUnits="userSpaceOnUse">
<stop stop-color="#F7DD43"/>
<stop offset="1" stop-color="#F7DD43" stop-opacity="0"/>
</linearGradient>
<linearGradient id="paint31_linear_175_198" x1="68.5" y1="472" x2="68.5" y2="783.381" gradientUnits="userSpaceOnUse">
<stop stop-color="#F7DD43"/>
<stop offset="1" stop-color="#F7DD43" stop-opacity="0"/>
</linearGradient>
<linearGradient id="paint32_linear_175_198" x1="68.5" y1="472" x2="68.5" y2="783.381" gradientUnits="userSpaceOnUse">
<stop stop-color="#F7DD43"/>
<stop offset="1" stop-color="#F7DD43" stop-opacity="0"/>
</linearGradient>
<linearGradient id="paint33_linear_175_198" x1="68.5" y1="472" x2="68.5" y2="783.381" gradientUnits="userSpaceOnUse">
<stop stop-color="#F7DD43"/>
<stop offset="1" stop-color="#F7DD43" stop-opacity="0"/>
</linearGradient>
<linearGradient id="paint34_linear_175_198" x1="68.5" y1="472" x2="68.5" y2="783.381" gradientUnits="userSpaceOnUse">
<stop stop-color="#F7DD43"/>
<stop offset="1" stop-color="#F7DD43" stop-opacity="0"/>
</linearGradient>
<linearGradient id="paint35_linear_175_198" x1="68.5" y1="472" x2="68.5" y2="783.381" gradientUnits="userSpaceOnUse">
<stop stop-color="#F7DD43"/>
<stop offset="1" stop-color="#F7DD43" stop-opacity="0"/>
</linearGradient>
<linearGradient id="paint36_linear_175_198" x1="68.5" y1="472" x2="68.5" y2="783.381" gradientUnits="userSpaceOnUse">
<stop stop-color="#F7DD43"/>
<stop offset="1" stop-color="#F7DD43" stop-opacity="0"/>
</linearGradient>
<linearGradient id="paint37_linear_175_198" x1="68.5" y1="472" x2="68.5" y2="783.381" gradientUnits="userSpaceOnUse">
<stop stop-color="#F7DD43"/>
<stop offset="1" stop-color="#F7DD43" stop-opacity="0"/>
</linearGradient>
<linearGradient id="paint38_linear_175_198" x1="68.5" y1="472" x2="68.5" y2="783.381" gradientUnits="userSpaceOnUse">
<stop stop-color="#F7DD43"/>
<stop offset="1" stop-color="#F7DD43" stop-opacity="0"/>
</linearGradient>
<linearGradient id="paint39_linear_175_198" x1="68.5" y1="472" x2="68.5" y2="783.381" gradientUnits="userSpaceOnUse">
<stop stop-color="#F7DD43"/>
<stop offset="1" stop-color="#F7DD43" stop-opacity="0"/>
</linearGradient>
<linearGradient id="paint40_linear_175_198" x1="68.5" y1="472" x2="68.5" y2="783.381" gradientUnits="userSpaceOnUse">
<stop stop-color="#F7DD43"/>
<stop offset="1" stop-color="#F7DD43" stop-opacity="0"/>
</linearGradient>
<linearGradient id="paint41_linear_175_198" x1="68.5" y1="472" x2="68.5" y2="783.381" gradientUnits="userSpaceOnUse">
<stop stop-color="#F7DD43"/>
<stop offset="1" stop-color="#F7DD43" stop-opacity="0"/>
</linearGradient>
<linearGradient id="paint42_linear_175_198" x1="68.5" y1="472" x2="68.5" y2="783.381" gradientUnits="userSpaceOnUse">
<stop stop-color="#F7DD43"/>
<stop offset="1" stop-color="#F7DD43" stop-opacity="0"/>
</linearGradient>
<linearGradient id="paint43_linear_175_198" x1="68.5" y1="472" x2="68.5" y2="783.381" gradientUnits="userSpaceOnUse">
<stop stop-color="#F7DD43"/>
<stop offset="1" stop-color="#F7DD43" stop-opacity="0"/>
</linearGradient>
<linearGradient id="paint44_linear_175_198" x1="68.5" y1="472" x2="68.5" y2="783.381" gradientUnits="userSpaceOnUse">
<stop stop-color="#F7DD43"/>
<stop offset="1" stop-color="#F7DD43" stop-opacity="0"/>
</linearGradient>
<linearGradient id="paint45_linear_175_198" x1="68.5" y1="472" x2="68.5" y2="783.381" gradientUnits="userSpaceOnUse">
<stop stop-color="#F7DD43"/>
<stop offset="1" stop-color="#F7DD43" stop-opacity="0"/>
</linearGradient>
<linearGradient id="paint46_linear_175_198" x1="68.5" y1="472" x2="68.5" y2="783.381" gradientUnits="userSpaceOnUse">
<stop stop-color="#F7DD43"/>
<stop offset="1" stop-color="#F7DD43" stop-opacity="0"/>
</linearGradient>
<linearGradient id="paint47_linear_175_198" x1="954.5" y1="172" x2="954.5" y2="470.818" gradientUnits="userSpaceOnUse">
<stop stop-color="#F7DD43"/>
<stop offset="1" stop-color="#F7DD43" stop-opacity="0"/>
</linearGradient>
<linearGradient id="paint48_linear_175_198" x1="954.5" y1="172" x2="954.5" y2="470.818" gradientUnits="userSpaceOnUse">
<stop stop-color="#F7DD43"/>
<stop offset="1" stop-color="#F7DD43" stop-opacity="0"/>
</linearGradient>
<linearGradient id="paint49_linear_175_198" x1="954.5" y1="172" x2="954.5" y2="470.818" gradientUnits="userSpaceOnUse">
<stop stop-color="#F7DD43"/>
<stop offset="1" stop-color="#F7DD43" stop-opacity="0"/>
</linearGradient>
<linearGradient id="paint50_linear_175_198" x1="954.5" y1="172" x2="954.5" y2="470.818" gradientUnits="userSpaceOnUse">
<stop stop-color="#F7DD43"/>
<stop offset="1" stop-color="#F7DD43" stop-opacity="0"/>
</linearGradient>
<linearGradient id="paint51_linear_175_198" x1="954.5" y1="172" x2="954.5" y2="470.818" gradientUnits="userSpaceOnUse">
<stop stop-color="#F7DD43"/>
<stop offset="1" stop-color="#F7DD43" stop-opacity="0"/>
</linearGradient>
<linearGradient id="paint52_linear_175_198" x1="954.5" y1="172" x2="954.5" y2="470.818" gradientUnits="userSpaceOnUse">
<stop stop-color="#F7DD43"/>
<stop offset="1" stop-color="#F7DD43" stop-opacity="0"/>
</linearGradient>
<linearGradient id="paint53_linear_175_198" x1="954.5" y1="172" x2="954.5" y2="470.818" gradientUnits="userSpaceOnUse">
<stop stop-color="#F7DD43"/>
<stop offset="1" stop-color="#F7DD43" stop-opacity="0"/>
</linearGradient>
<linearGradient id="paint54_linear_175_198" x1="954.5" y1="172" x2="954.5" y2="470.818" gradientUnits="userSpaceOnUse">
<stop stop-color="#F7DD43"/>
<stop offset="1" stop-color="#F7DD43" stop-opacity="0"/>
</linearGradient>
<linearGradient id="paint55_linear_175_198" x1="954.5" y1="172" x2="954.5" y2="470.818" gradientUnits="userSpaceOnUse">
<stop stop-color="#F7DD43"/>
<stop offset="1" stop-color="#F7DD43" stop-opacity="0"/>
</linearGradient>
<linearGradient id="paint56_linear_175_198" x1="954.5" y1="172" x2="954.5" y2="470.818" gradientUnits="userSpaceOnUse">
<stop stop-color="#F7DD43"/>
<stop offset="1" stop-color="#F7DD43" stop-opacity="0"/>
</linearGradient>
<linearGradient id="paint57_linear_175_198" x1="954.5" y1="172" x2="954.5" y2="470.818" gradientUnits="userSpaceOnUse">
<stop stop-color="#F7DD43"/>
<stop offset="1" stop-color="#F7DD43" stop-opacity="0"/>
</linearGradient>
<linearGradient id="paint58_linear_175_198" x1="954.5" y1="172" x2="954.5" y2="470.818" gradientUnits="userSpaceOnUse">
<stop stop-color="#F7DD43"/>
<stop offset="1" stop-color="#F7DD43" stop-opacity="0"/>
</linearGradient>
<linearGradient id="paint59_linear_175_198" x1="954.5" y1="172" x2="954.5" y2="470.818" gradientUnits="userSpaceOnUse">
<stop stop-color="#F7DD43"/>
<stop offset="1" stop-color="#F7DD43" stop-opacity="0"/>
</linearGradient>
<linearGradient id="paint60_linear_175_198" x1="954.5" y1="172" x2="954.5" y2="470.818" gradientUnits="userSpaceOnUse">
<stop stop-color="#F7DD43"/>
<stop offset="1" stop-color="#F7DD43" stop-opacity="0"/>
</linearGradient>
<linearGradient id="paint61_linear_175_198" x1="954.5" y1="172" x2="954.5" y2="470.818" gradientUnits="userSpaceOnUse">
<stop stop-color="#F7DD43"/>
<stop offset="1" stop-color="#F7DD43" stop-opacity="0"/>
</linearGradient>
<linearGradient id="paint62_linear_175_198" x1="954.5" y1="172" x2="954.5" y2="470.818" gradientUnits="userSpaceOnUse">
<stop stop-color="#F7DD43"/>
<stop offset="1" stop-color="#F7DD43" stop-opacity="0"/>
</linearGradient>
<linearGradient id="paint63_linear_175_198" x1="954.5" y1="172" x2="954.5" y2="470.818" gradientUnits="userSpaceOnUse">
<stop stop-color="#F7DD43"/>
<stop offset="1" stop-color="#F7DD43" stop-opacity="0"/>
</linearGradient>
<linearGradient id="paint64_linear_175_198" x1="954.5" y1="172" x2="954.5" y2="470.818" gradientUnits="userSpaceOnUse">
<stop stop-color="#F7DD43"/>
<stop offset="1" stop-color="#F7DD43" stop-opacity="0"/>
</linearGradient>
<linearGradient id="paint65_linear_175_198" x1="954.5" y1="172" x2="954.5" y2="470.818" gradientUnits="userSpaceOnUse">
<stop stop-color="#F7DD43"/>
<stop offset="1" stop-color="#F7DD43" stop-opacity="0"/>
</linearGradient>
<linearGradient id="paint66_linear_175_198" x1="954.5" y1="172" x2="954.5" y2="470.818" gradientUnits="userSpaceOnUse">
<stop stop-color="#F7DD43"/>
<stop offset="1" stop-color="#F7DD43" stop-opacity="0"/>
</linearGradient>
<linearGradient id="paint67_linear_175_198" x1="954.5" y1="172" x2="954.5" y2="470.818" gradientUnits="userSpaceOnUse">
<stop stop-color="#F7DD43"/>
<stop offset="1" stop-color="#F7DD43" stop-opacity="0"/>
</linearGradient>
<linearGradient id="paint68_linear_175_198" x1="954.5" y1="172" x2="954.5" y2="470.818" gradientUnits="userSpaceOnUse">
<stop stop-color="#F7DD43"/>
<stop offset="1" stop-color="#F7DD43" stop-opacity="0"/>
</linearGradient>
<linearGradient id="paint69_linear_175_198" x1="954.5" y1="172" x2="954.5" y2="470.818" gradientUnits="userSpaceOnUse">
<stop stop-color="#F7DD43"/>
<stop offset="1" stop-color="#F7DD43" stop-opacity="0"/>
</linearGradient>
<linearGradient id="paint70_linear_175_198" x1="954.5" y1="172" x2="954.5" y2="470.818" gradientUnits="userSpaceOnUse">
<stop stop-color="#F7DD43"/>
<stop offset="1" stop-color="#F7DD43" stop-opacity="0"/>
</linearGradient>
<linearGradient id="paint71_linear_175_198" x1="954.5" y1="172" x2="954.5" y2="470.818" gradientUnits="userSpaceOnUse">
<stop stop-color="#F7DD43"/>
<stop offset="1" stop-color="#F7DD43" stop-opacity="0"/>
</linearGradient>
<linearGradient id="paint72_linear_175_198" x1="954.5" y1="172" x2="954.5" y2="470.818" gradientUnits="userSpaceOnUse">
<stop stop-color="#F7DD43"/>
<stop offset="1" stop-color="#F7DD43" stop-opacity="0"/>
</linearGradient>
<linearGradient id="paint73_linear_175_198" x1="954.5" y1="172" x2="954.5" y2="470.818" gradientUnits="userSpaceOnUse">
<stop stop-color="#F7DD43"/>
<stop offset="1" stop-color="#F7DD43" stop-opacity="0"/>
</linearGradient>
<linearGradient id="paint74_linear_175_198" x1="954.5" y1="172" x2="954.5" y2="470.818" gradientUnits="userSpaceOnUse">
<stop stop-color="#F7DD43"/>
<stop offset="1" stop-color="#F7DD43" stop-opacity="0"/>
</linearGradient>
<linearGradient id="paint75_linear_175_198" x1="954.5" y1="172" x2="954.5" y2="470.818" gradientUnits="userSpaceOnUse">
<stop stop-color="#F7DD43"/>
<stop offset="1" stop-color="#F7DD43" stop-opacity="0"/>
</linearGradient>
<linearGradient id="paint76_linear_175_198" x1="954.5" y1="172" x2="954.5" y2="470.818" gradientUnits="userSpaceOnUse">
<stop stop-color="#F7DD43"/>
<stop offset="1" stop-color="#F7DD43" stop-opacity="0"/>
</linearGradient>
<linearGradient id="paint77_linear_175_198" x1="954.5" y1="172" x2="954.5" y2="470.818" gradientUnits="userSpaceOnUse">
<stop stop-color="#F7DD43"/>
<stop offset="1" stop-color="#F7DD43" stop-opacity="0"/>
</linearGradient>
<linearGradient id="paint78_linear_175_198" x1="954.5" y1="172" x2="954.5" y2="470.818" gradientUnits="userSpaceOnUse">
<stop stop-color="#F7DD43"/>
<stop offset="1" stop-color="#F7DD43" stop-opacity="0"/>
</linearGradient>
<linearGradient id="paint79_linear_175_198" x1="954.5" y1="172" x2="954.5" y2="470.818" gradientUnits="userSpaceOnUse">
<stop stop-color="#F7DD43"/>
<stop offset="1" stop-color="#F7DD43" stop-opacity="0"/>
</linearGradient>
<linearGradient id="paint80_linear_175_198" x1="954.5" y1="172" x2="954.5" y2="470.818" gradientUnits="userSpaceOnUse">
<stop stop-color="#F7DD43"/>
<stop offset="1" stop-color="#F7DD43" stop-opacity="0"/>
</linearGradient>
<linearGradient id="paint81_linear_175_198" x1="954.5" y1="172" x2="954.5" y2="470.818" gradientUnits="userSpaceOnUse">
<stop stop-color="#F7DD43"/>
<stop offset="1" stop-color="#F7DD43" stop-opacity="0"/>
</linearGradient>
<linearGradient id="paint82_linear_175_198" x1="954.5" y1="172" x2="954.5" y2="470.818" gradientUnits="userSpaceOnUse">
<stop stop-color="#F7DD43"/>
<stop offset="1" stop-color="#F7DD43" stop-opacity="0"/>
</linearGradient>
<linearGradient id="paint83_linear_175_198" x1="954.5" y1="172" x2="954.5" y2="470.818" gradientUnits="userSpaceOnUse">
<stop stop-color="#F7DD43"/>
<stop offset="1" stop-color="#F7DD43" stop-opacity="0"/>
</linearGradient>
<linearGradient id="paint84_linear_175_198" x1="954.5" y1="172" x2="954.5" y2="470.818" gradientUnits="userSpaceOnUse">
<stop stop-color="#F7DD43"/>
<stop offset="1" stop-color="#F7DD43" stop-opacity="0"/>
</linearGradient>
<linearGradient id="paint85_linear_175_198" x1="954.5" y1="172" x2="954.5" y2="470.818" gradientUnits="userSpaceOnUse">
<stop stop-color="#F7DD43"/>
<stop offset="1" stop-color="#F7DD43" stop-opacity="0"/>
</linearGradient>
<linearGradient id="paint86_linear_175_198" x1="954.5" y1="172" x2="954.5" y2="470.818" gradientUnits="userSpaceOnUse">
<stop stop-color="#F7DD43"/>
<stop offset="1" stop-color="#F7DD43" stop-opacity="0"/>
</linearGradient>
<linearGradient id="paint87_linear_175_198" x1="954.5" y1="172" x2="954.5" y2="470.818" gradientUnits="userSpaceOnUse">
<stop stop-color="#F7DD43"/>
<stop offset="1" stop-color="#F7DD43" stop-opacity="0"/>
</linearGradient>
<linearGradient id="paint88_linear_175_198" x1="954.5" y1="172" x2="954.5" y2="470.818" gradientUnits="userSpaceOnUse">
<stop stop-color="#F7DD43"/>
<stop offset="1" stop-color="#F7DD43" stop-opacity="0"/>
</linearGradient>
<linearGradient id="paint89_linear_175_198" x1="954.5" y1="172" x2="954.5" y2="470.818" gradientUnits="userSpaceOnUse">
<stop stop-color="#F7DD43"/>
<stop offset="1" stop-color="#F7DD43" stop-opacity="0"/>
</linearGradient>
<linearGradient id="paint90_linear_175_198" x1="954.5" y1="172" x2="954.5" y2="470.818" gradientUnits="userSpaceOnUse">
<stop stop-color="#F7DD43"/>
<stop offset="1" stop-color="#F7DD43" stop-opacity="0"/>
</linearGradient>
<linearGradient id="paint91_linear_175_198" x1="954.5" y1="172" x2="954.5" y2="470.818" gradientUnits="userSpaceOnUse">
<stop stop-color="#F7DD43"/>
<stop offset="1" stop-color="#F7DD43" stop-opacity="0"/>
</linearGradient>
<linearGradient id="paint92_linear_175_198" x1="954.5" y1="172" x2="954.5" y2="470.818" gradientUnits="userSpaceOnUse">
<stop stop-color="#F7DD43"/>
<stop offset="1" stop-color="#F7DD43" stop-opacity="0"/>
</linearGradient>
<linearGradient id="paint93_linear_175_198" x1="954.5" y1="172" x2="954.5" y2="470.818" gradientUnits="userSpaceOnUse">
<stop stop-color="#F7DD43"/>
<stop offset="1" stop-color="#F7DD43" stop-opacity="0"/>
</linearGradient>
</defs>
</svg>
